<?xml version="1.0" encoding="utf-8"?>
<svg version="1.1" xmlns="http://www.w3.org/2000/svg" xmlns:xlink="http://www.w3.org/1999/xlink" x="0px" y="0px"
	 viewBox="0 0 512 512" >
	 <!-- <svg xmlns="http://www.w3.org/2000/svg" style="display: none;"> -->

    <style>
      path{fill:#A35C5C;strike:#A35C5C;}
      g { display: none }
      g:target { display: inline }
    </style>
	<g id='address-book' >

				<path d="M436 160c6.627 0 12-5.373 12-12v-40c0-6.627-5.373-12-12-12h-20V48c0-26.51-21.49-48-48-48H48C21.49 0 0 21.49 0 48v416c0 26.51 21.49 48 48 48h320c26.51 0 48-21.49 48-48v-48h20c6.627 0 12-5.373 12-12v-40c0-6.627-5.373-12-12-12h-20v-64h20c6.627 0 12-5.373 12-12v-40c0-6.627-5.373-12-12-12h-20v-64h20zm-74 304H54a6 6 0 0 1-6-6V54a6 6 0 0 1 6-6h308a6 6 0 0 1 6 6v404a6 6 0 0 1-6 6zM128 208c0-44.183 35.817-80 80-80s80 35.817 80 80-35.817 80-80 80-80-35.817-80-80zm208 133.477V360c0 13.255-10.745 24-24 24H104c-13.255 0-24-10.745-24-24v-18.523c0-22.026 14.99-41.225 36.358-46.567l35.657-8.914c29.101 20.932 74.509 26.945 111.97 0l35.657 8.914C321.01 300.252 336 319.452 336 341.477z"></path>

	</g>
	<g id='address-card'>

				<path d="M464 64H48C21.49 64 0 85.49 0 112v288c0 26.51 21.49 48 48 48h416c26.51 0 48-21.49 48-48V112c0-26.51-21.49-48-48-48zm-6 336H54a6 6 0 0 1-6-6V118a6 6 0 0 1 6-6h404a6 6 0 0 1 6 6v276a6 6 0 0 1-6 6zm-54-176H300c-6.627 0-12-5.373-12-12v-16c0-6.627 5.373-12 12-12h104c6.627 0 12 5.373 12 12v16c0 6.627-5.373 12-12 12zm0 72H300c-6.627 0-12-5.373-12-12v-16c0-6.627 5.373-12 12-12h104c6.627 0 12 5.373 12 12v16c0 6.627-5.373 12-12 12zM176 160c33.137 0 60 26.863 60 60s-26.863 60-60 60-60-26.863-60-60 26.863-60 60-60zm68.731 125.183l-26.742-6.686c-28.096 20.209-62.152 15.699-83.978 0l-26.742 6.686C91.243 289.189 80 303.589 80 320.108V334c0 9.941 8.059 18 18 18h156c9.941 0 18-8.059 18-18v-13.892c0-16.519-11.243-30.919-27.269-34.925z"></path>

	</g>
	<g id="caret-square-right">

				<path d="M176 354.9V157.1c0-10.7 13-16.1 20.5-8.5l98.3 98.9c4.7 4.7 4.7 12.2 0 16.9l-98.3 98.9c-7.5 7.7-20.5 2.3-20.5-8.4zM448 80v352c0 26.5-21.5 48-48 48H48c-26.5 0-48-21.5-48-48V80c0-26.5 21.5-48 48-48h352c26.5 0 48 21.5 48 48zm-48 346V86c0-3.3-2.7-6-6-6H54c-3.3 0-6 2.7-6 6v340c0 3.3 2.7 6 6 6h340c3.3 0 6-2.7 6-6z"></path>

	</g>
	<g id="clipboard">
				<path d="M405.333,80h-87.35C310.879,52.396,285.821,32,256,32s-54.879,20.396-61.983,48h-87.35C83.198,80,64,99.198,64,122.667
				v314.665C64,460.801,83.198,480,106.667,480h298.666C428.802,480,448,460.801,448,437.332V122.667C448,99.198,428.802,80,405.333,80
				z M256,80c11.729,0,21.333,9.599,21.333,21.333s-9.604,21.334-21.333,21.334s-21.333-9.6-21.333-21.334S244.271,80,256,80z M408,440
				H104V120h40v72h224v-72h40V440z"></path>
	</g>

</svg>
